<svg width="190" height="60" viewBox="0 0 190 60" fill="none" xmlns="http://www.w3.org/2000/svg">
<path d="M20.875 7.5C23.825 7.075 26.95 10.3 27.85 14.75C28.75 19.175 27.125 23.125 24.175 23.575C21.25 24.025 18.1 20.8 17.175 16.35C16.25 11.925 17.925 7.975 20.875 7.5ZM38.75 7.5C41.725 7.975 43.375 11.925 42.5 16.35C41.55 20.8 38.425 24.025 35.475 23.575C32.5 23.125 30.875 19.175 31.8 14.75C32.7 10.3 35.825 7.075 38.75 7.5ZM7.50001 19C10.35 17.775 14.225 20 16.25 23.875C18.15 27.825 17.5 31.975 14.675 33.2C11.85 34.425 8.00001 32.225 6.02501 28.3C4.05001 24.375 4.75001 20.2 7.50001 19ZM52.5 19C55.25 20.2 55.95 24.375 53.975 28.3C52 32.225 48.15 34.425 45.325 33.2C42.5 31.975 41.85 27.825 43.75 23.875C45.775 20 49.65 17.775 52.5 19ZM48.325 45.95C48.425 48.3 46.625 50.9 44.475 51.875C40 53.925 34.7 49.675 29.725 49.675C24.75 49.675 19.4 54.1 15 51.875C12.5 50.65 10.775 47.4 11.1 44.7C11.55 40.975 16.025 38.975 18.675 36.25C22.2 32.725 24.7 26.1 29.725 26.1C34.725 26.1 37.375 32.625 40.75 36.25C43.525 39.3 48.15 41.875 48.325 45.95Z" fill="#000857"/>
<path d="M87.34 26.54C87.34 27.66 87.07 28.71 86.53 29.69C86.01 30.67 85.18 31.46 84.04 32.06C82.92 32.66 81.5 32.96 79.78 32.96H76.27V41H72.07V20.06H79.78C81.4 20.06 82.78 20.34 83.92 20.9C85.06 21.46 85.91 22.23 86.47 23.21C87.05 24.19 87.34 25.3 87.34 26.54ZM79.6 29.57C80.76 29.57 81.62 29.31 82.18 28.79C82.74 28.25 83.02 27.5 83.02 26.54C83.02 24.5 81.88 23.48 79.6 23.48H76.27V29.57H79.6ZM104.272 32.33C104.272 32.93 104.232 33.47 104.152 33.95H92.002C92.102 35.15 92.522 36.09 93.262 36.77C94.002 37.45 94.912 37.79 95.992 37.79C97.552 37.79 98.662 37.12 99.322 35.78H103.852C103.372 37.38 102.452 38.7 101.092 39.74C99.732 40.76 98.062 41.27 96.082 41.27C94.482 41.27 93.042 40.92 91.762 40.22C90.502 39.5 89.512 38.49 88.792 37.19C88.092 35.89 87.742 34.39 87.742 32.69C87.742 30.97 88.092 29.46 88.792 28.16C89.492 26.86 90.472 25.86 91.732 25.16C92.992 24.46 94.442 24.11 96.082 24.11C97.662 24.11 99.072 24.45 100.312 25.13C101.572 25.81 102.542 26.78 103.222 28.04C103.922 29.28 104.272 30.71 104.272 32.33ZM99.922 31.13C99.902 30.05 99.512 29.19 98.752 28.55C97.992 27.89 97.062 27.56 95.962 27.56C94.922 27.56 94.042 27.88 93.322 28.52C92.622 29.14 92.192 30.01 92.032 31.13H99.922ZM110.728 27.83V35.87C110.728 36.43 110.858 36.84 111.118 37.1C111.398 37.34 111.858 37.46 112.498 37.46H114.448V41H111.808C108.268 41 106.498 39.28 106.498 35.84V27.83H104.518V24.38H106.498V20.27H110.728V24.38H114.448V27.83H110.728Z" fill="#F3A528"/>
<path d="M121.241 30.5C121.241 28.44 121.701 26.6 122.621 24.98C123.561 23.34 124.831 22.07 126.431 21.17C128.051 20.25 129.861 19.79 131.861 19.79C134.201 19.79 136.251 20.39 138.011 21.59C139.771 22.79 141.001 24.45 141.701 26.57H136.871C136.391 25.57 135.711 24.82 134.831 24.32C133.971 23.82 132.971 23.57 131.831 23.57C130.611 23.57 129.521 23.86 128.561 24.44C127.621 25 126.881 25.8 126.341 26.84C125.821 27.88 125.561 29.1 125.561 30.5C125.561 31.88 125.821 33.1 126.341 34.16C126.881 35.2 127.621 36.01 128.561 36.59C129.521 37.15 130.611 37.43 131.831 37.43C132.971 37.43 133.971 37.18 134.831 36.68C135.711 36.16 136.391 35.4 136.871 34.4H141.701C141.001 36.54 139.771 38.21 138.011 39.41C136.271 40.59 134.221 41.18 131.861 41.18C129.861 41.18 128.051 40.73 126.431 39.83C124.831 38.91 123.561 37.64 122.621 36.02C121.701 34.4 121.241 32.56 121.241 30.5ZM142.709 32.63C142.709 30.95 143.039 29.46 143.699 28.16C144.379 26.86 145.289 25.86 146.429 25.16C147.589 24.46 148.879 24.11 150.299 24.11C151.539 24.11 152.619 24.36 153.539 24.86C154.479 25.36 155.229 25.99 155.789 26.75V24.38H160.019V41H155.789V38.57C155.249 39.35 154.499 40 153.539 40.52C152.599 41.02 151.509 41.27 150.269 41.27C148.869 41.27 147.589 40.91 146.429 40.19C145.289 39.47 144.379 38.46 143.699 37.16C143.039 35.84 142.709 34.33 142.709 32.63ZM155.789 32.69C155.789 31.67 155.589 30.8 155.189 30.08C154.789 29.34 154.249 28.78 153.569 28.4C152.889 28 152.159 27.8 151.379 27.8C150.599 27.8 149.879 27.99 149.219 28.37C148.559 28.75 148.019 29.31 147.599 30.05C147.199 30.77 146.999 31.63 146.999 32.63C146.999 33.63 147.199 34.51 147.599 35.27C148.019 36.01 148.559 36.58 149.219 36.98C149.899 37.38 150.619 37.58 151.379 37.58C152.159 37.58 152.889 37.39 153.569 37.01C154.249 36.61 154.789 36.05 155.189 35.33C155.589 34.59 155.789 33.71 155.789 32.69ZM166.821 26.96C167.361 26.08 168.061 25.39 168.921 24.89C169.801 24.39 170.801 24.14 171.921 24.14V28.55H170.811C169.491 28.55 168.491 28.86 167.811 29.48C167.151 30.1 166.821 31.18 166.821 32.72V41H162.621V24.38H166.821V26.96ZM188.7 32.33C188.7 32.93 188.66 33.47 188.58 33.95H176.43C176.53 35.15 176.95 36.09 177.69 36.77C178.43 37.45 179.34 37.79 180.42 37.79C181.98 37.79 183.09 37.12 183.75 35.78H188.28C187.8 37.38 186.88 38.7 185.52 39.74C184.16 40.76 182.49 41.27 180.51 41.27C178.91 41.27 177.47 40.92 176.19 40.22C174.93 39.5 173.94 38.49 173.22 37.19C172.52 35.89 172.17 34.39 172.17 32.69C172.17 30.97 172.52 29.46 173.22 28.16C173.92 26.86 174.9 25.86 176.16 25.16C177.42 24.46 178.87 24.11 180.51 24.11C182.09 24.11 183.5 24.45 184.74 25.13C186 25.81 186.97 26.78 187.65 28.04C188.35 29.28 188.7 30.71 188.7 32.33ZM184.35 31.13C184.33 30.05 183.94 29.19 183.18 28.55C182.42 27.89 181.49 27.56 180.39 27.56C179.35 27.56 178.47 27.88 177.75 28.52C177.05 29.14 176.62 30.01 176.46 31.13H184.35Z" fill="#000857"/>
</svg>
