<svg width="190" height="62" viewBox="0 0 190 62" fill="none" xmlns="http://www.w3.org/2000/svg">
<path d="M78.4226 38.1292C76.9021 37.2716 75.646 35.9961 74.8307 34.4568C73.9492 32.8075 73.5085 30.9603 73.5526 29.0912C73.5085 27.2 73.9713 25.3088 74.8968 23.6375C75.7342 22.0982 77.0123 20.8228 78.5328 19.9652C80.0973 19.0855 81.8602 18.6457 83.6672 18.6677C85.0114 18.6457 86.3556 18.8217 87.6337 19.2175C88.7796 19.5913 89.8814 20.1191 90.8951 20.7568C91.0714 20.8448 91.2036 20.9987 91.3138 21.1526C91.4239 21.3505 91.49 21.5705 91.49 21.7904C91.5121 22.4281 90.9832 22.9558 90.3442 22.9778C90.3221 22.9778 90.3001 22.9778 90.256 22.9778C90.0357 22.9778 89.8373 22.9339 89.639 22.8239C88.7796 22.2961 87.8541 21.9003 86.9065 21.5924C85.9369 21.3066 84.9453 21.1746 83.9537 21.1966C82.5654 21.1746 81.1991 21.5045 79.9871 22.1202C78.8192 22.7359 77.8496 23.6815 77.2106 24.825C76.5495 26.0125 76.219 27.4199 76.219 29.0692C76.1969 30.4765 76.5275 31.8619 77.1665 33.1154C77.7835 34.3029 78.7311 35.2704 79.899 35.9302C81.089 36.6119 82.4993 36.9637 84.13 36.9637C85.8928 36.9637 87.6337 36.5459 89.1983 35.6883V30.4326H84.4164C83.7553 30.4106 83.2485 29.8388 83.2705 29.2011C83.2926 28.5854 83.7994 28.0796 84.4164 28.0576H90.1458C90.9171 28.0576 91.5341 28.6733 91.5341 29.443C91.5341 29.443 91.5341 29.443 91.5341 29.465V36.0401C91.5341 36.4139 91.4239 36.8098 91.2256 37.1176C91.0273 37.4255 90.7629 37.6674 90.4323 37.8213C88.3829 38.8769 86.0912 39.4266 83.7774 39.4486C81.8823 39.4706 80.0533 39.0308 78.4226 38.1292Z" fill="#8F8F8F"/>
<path d="M96.6024 38.9206C96.36 38.6787 96.2278 38.3489 96.2278 37.997V25.5725C96.2278 25.2206 96.36 24.8908 96.6024 24.6269C96.8448 24.363 97.1753 24.2311 97.5279 24.2311C98.2551 24.2311 98.8501 24.8248 98.8721 25.5725V26.8259C100.216 25.0227 101.737 24.0991 103.412 24.0991H103.566C103.918 24.0991 104.249 24.2311 104.469 24.473C104.712 24.7149 104.844 25.0447 104.822 25.3966C104.844 25.7264 104.69 26.0563 104.447 26.2982C104.183 26.5401 103.83 26.65 103.478 26.65H103.323C102.42 26.65 101.539 26.8699 100.767 27.3317C99.9739 27.7935 99.3129 28.4312 98.8281 29.2009V38.019C98.8281 38.3709 98.6958 38.7007 98.4314 38.9426C98.189 39.1845 97.8364 39.3165 97.4839 39.3165C97.1753 39.2945 96.8448 39.1625 96.6024 38.9206Z" fill="#8F8F8F"/>
<path d="M109.515 38.481C108.392 37.8432 107.488 36.9196 106.915 35.7761C106.298 34.5227 105.968 33.1593 106.012 31.7519C105.99 30.3665 106.298 28.9811 106.915 27.7277C107.488 26.5842 108.392 25.6386 109.515 25.0229C111.962 23.7474 114.87 23.7474 117.316 25.0229C118.44 25.6606 119.344 26.5842 119.939 27.7277C120.578 28.9591 120.886 30.3445 120.864 31.7519C120.886 33.1373 120.578 34.5227 119.939 35.7761C119.344 36.9196 118.44 37.8652 117.316 38.481C114.87 39.7564 111.962 39.7564 109.515 38.481ZM115.708 36.4798C116.457 36.084 117.096 35.4903 117.515 34.7426C117.977 33.951 118.22 32.9394 118.22 31.7299C118.22 30.5205 117.977 29.5089 117.515 28.7392C117.096 27.9916 116.479 27.3978 115.708 27.024C115.002 26.6721 114.209 26.4962 113.438 26.4962C112.645 26.4962 111.851 26.6721 111.124 27.024C110.375 27.3978 109.758 28.0136 109.339 28.7392C108.876 29.5309 108.634 30.5205 108.634 31.7299C108.634 32.9174 108.876 33.929 109.339 34.7426C109.758 35.4903 110.375 36.084 111.124 36.4798C111.829 36.8537 112.623 37.0296 113.438 37.0296C114.231 37.0296 115.002 36.8537 115.708 36.4798Z" fill="#8F8F8F"/>
<path d="M127.718 38.9426C127.409 38.7227 127.189 38.4149 127.079 38.063L122.958 26.0123C122.914 25.8584 122.87 25.6824 122.87 25.5285C122.87 24.8248 123.443 24.2311 124.148 24.2311H124.17C124.434 24.2311 124.699 24.2971 124.897 24.451C125.095 24.5829 125.25 24.7808 125.338 25.0227L128.731 36.1718L132.103 25.2866C132.345 24.495 133.183 24.0552 133.976 24.319C134.439 24.473 134.813 24.8248 134.945 25.2866L138.317 36.1718L141.755 25.0227C141.843 24.7808 141.997 24.5829 142.195 24.451C142.416 24.2971 142.68 24.2311 142.945 24.2311C143.65 24.2311 144.245 24.8028 144.245 25.5065V25.5285C144.245 25.7044 144.223 25.8584 144.157 26.0123L140.036 38.085C139.926 38.4368 139.705 38.7447 139.397 38.9646C138.78 39.4264 137.92 39.4264 137.303 38.9646C136.995 38.7447 136.774 38.4149 136.642 38.063L133.557 28.4752L130.472 38.063C130.34 38.4149 130.12 38.7227 129.811 38.9646C129.194 39.4264 128.335 39.4264 127.718 38.9426Z" fill="#8F8F8F"/>
<path d="M148.828 35.6222V26.6501H146.779C146.624 26.6501 146.492 26.6062 146.382 26.4962C146.272 26.3863 146.228 26.2543 146.228 26.1004C146.228 25.9025 146.338 25.7265 146.492 25.6166L150.437 21.7683C150.569 21.6143 150.745 21.5264 150.921 21.5044C151.076 21.5044 151.208 21.5704 151.318 21.6803C151.428 21.7903 151.472 21.9442 151.472 22.0761V24.3851H154.756C155.395 24.3851 155.902 24.8909 155.88 25.5286C155.88 25.8145 155.769 26.1004 155.571 26.3203C155.351 26.5402 155.064 26.6721 154.756 26.6501H151.472V35.4023C151.472 36.15 151.649 36.6338 152.001 36.8317C152.42 37.0516 152.883 37.1615 153.345 37.1395C153.742 37.1395 154.139 37.0736 154.513 36.9636L154.756 36.8976C154.866 36.8757 154.976 36.8757 155.086 36.8757C155.351 36.8757 155.615 36.9856 155.814 37.1835C156.012 37.3814 156.144 37.6453 156.122 37.9312C156.122 38.371 155.858 38.7668 155.461 38.9427C154.712 39.2946 153.874 39.4705 153.059 39.4705C150.238 39.4485 148.828 38.1731 148.828 35.6222Z" fill="#8F8F8F"/>
<path d="M159.251 20.9325C158.965 20.6686 158.811 20.2728 158.811 19.899V19.789C158.811 18.9754 159.472 18.3157 160.287 18.3157H160.463C161.279 18.3157 161.94 18.9754 161.94 19.789V19.899C161.94 20.7126 161.279 21.3723 160.463 21.3943H160.287C159.89 21.3723 159.516 21.2184 159.251 20.9325ZM159.428 38.9206C159.185 38.6787 159.053 38.3489 159.053 37.997V25.5725C159.053 25.2206 159.185 24.8908 159.428 24.6269C159.67 24.363 160.001 24.2311 160.353 24.2311C161.058 24.2091 161.675 24.7588 161.697 25.4845C161.697 25.5065 161.697 25.5285 161.697 25.5725V37.997C161.697 38.3489 161.565 38.6787 161.301 38.9206C161.058 39.1625 160.706 39.2945 160.353 39.2945C160.001 39.3165 159.67 39.1625 159.428 38.9206Z" fill="#8F8F8F"/>
<path d="M167.757 38.9206C167.515 38.6788 167.382 38.3489 167.382 37.9971V26.65H165.664C165.047 26.65 164.54 26.1442 164.54 25.5285C164.54 25.2207 164.65 24.9348 164.87 24.7149C165.091 24.517 165.377 24.385 165.664 24.407H167.382V22.6918C167.382 21.5263 167.581 20.5807 167.999 19.833C168.374 19.1513 168.925 18.5796 169.63 18.2057C170.291 17.8759 170.996 17.7 171.724 17.7C172.605 17.7 173.464 17.8979 174.258 18.2937C174.456 18.3817 174.61 18.5356 174.743 18.7115C174.875 18.8874 174.941 19.0853 174.941 19.3052C174.941 19.5911 174.831 19.877 174.61 20.0749C174.412 20.2948 174.148 20.4048 173.861 20.4048C173.641 20.4048 173.42 20.3828 173.2 20.3168C172.737 20.2508 172.473 20.2288 172.407 20.2288C171.613 20.2288 171.018 20.4048 170.622 20.7786C170.225 21.1524 170.027 21.8121 170.027 22.7797V24.363H173.663C174.302 24.363 174.809 24.8688 174.787 25.5065C174.787 25.7924 174.676 26.0783 174.478 26.2982C174.258 26.5181 173.971 26.65 173.663 26.628H170.027V37.9971C170.027 38.3489 169.895 38.6788 169.63 38.9206C169.388 39.1625 169.035 39.2945 168.683 39.2945C168.33 39.3165 167.999 39.1625 167.757 38.9206Z" fill="#8F8F8F"/>
<path d="M179.789 45.5837C179.547 45.3418 179.436 45.012 179.436 44.6821C179.436 44.5282 179.458 44.3742 179.525 44.2203L181.42 39.3824L175.955 26.1222C175.889 25.9463 175.844 25.7704 175.844 25.5725C175.844 25.2206 175.977 24.8908 176.219 24.6269C176.461 24.385 176.792 24.2311 177.145 24.2311C177.409 24.2311 177.673 24.319 177.894 24.473C178.114 24.6049 178.268 24.8248 178.379 25.0447L182.852 36.1059L187.413 25.1107C187.656 24.517 188.075 24.2311 188.625 24.2311C188.978 24.2311 189.309 24.363 189.551 24.6269C189.793 24.8688 189.926 25.2206 189.926 25.5725C189.926 25.7484 189.904 25.9023 189.837 26.0563L181.904 45.0559C181.64 45.6497 181.221 45.9576 180.692 45.9576C180.34 45.9576 180.009 45.8256 179.789 45.5837Z" fill="#8F8F8F"/>
<path d="M27.7831 4C12.8426 4 0.722656 16.0947 0.722656 31.0042C0.722656 37.7992 3.27886 44.3303 7.90646 49.3221L13.6359 43.6046L15.1564 45.122L17.1837 43.0989H34.2618C31.97 44.4183 29.3477 45.122 26.7034 45.122H15.1343L9.40493 50.8395C20.379 60.955 37.5011 60.2733 47.6378 49.3001C57.7744 38.3269 57.0913 21.2624 46.0952 11.1469C41.115 6.55088 34.5703 4 27.7831 4ZM13.6359 43.6046V32.1037C13.6579 23.7034 20.4671 16.9083 28.8849 16.8863H40.4099L13.6359 43.6046ZM36.9943 41.0757H19.189L21.2163 39.0526H38.8453C38.2944 39.8003 37.6774 40.46 36.9943 41.0757ZM40.1234 37.0515H23.2216L25.249 35.0284H41.0269C40.7845 35.7321 40.476 36.3918 40.1234 37.0515ZM41.5998 33.0053H27.2763L29.4799 30.8062H41.8863C41.8422 31.5539 41.7541 32.2796 41.5998 33.0053ZM41.9304 28.7611H31.5293L33.5787 26.716H41.9304V28.7611ZM41.9304 24.6489H35.6501L37.3909 22.9117H41.9304V24.6489ZM41.9304 20.9106H39.3962L41.9304 18.3817V20.9106Z" fill="#8F8F8F"/>
</svg>
