<svg width="186" height="64" viewBox="0 0 186 64" fill="none" xmlns="http://www.w3.org/2000/svg">
<path d="M89.0271 26.3571V34.2643C88.042 34.9831 86.9239 35.5422 85.7524 35.9149C84.5278 36.2876 83.2498 36.474 81.9719 36.474C80.4544 36.5006 78.9635 36.2344 77.5258 35.7019C76.2745 35.2227 75.1031 34.5039 74.1447 33.572C73.2128 32.6402 72.4674 31.5221 71.9882 30.2974C71.4823 28.9662 71.2161 27.5286 71.2427 26.0909C71.2161 24.6532 71.4557 23.2156 71.9615 21.8578C72.4141 20.6331 73.133 19.5149 74.0382 18.5831C74.97 17.6513 76.0882 16.9325 77.3128 16.4533C78.6972 15.9208 80.1615 15.6812 81.6524 15.7078C82.3979 15.7078 83.17 15.761 83.9154 15.8942C84.581 16.0007 85.22 16.187 85.8323 16.4266C86.418 16.6396 86.9505 16.9059 87.4829 17.2253C87.9888 17.5448 88.4414 17.8909 88.894 18.2903L88.042 19.6481C87.9355 19.861 87.7492 19.9942 87.5096 20.0474C87.2699 20.1006 87.0037 20.0474 86.8174 19.8877C86.5777 19.7545 86.3115 19.5682 86.0187 19.3818C85.6726 19.1688 85.3265 18.9825 84.9537 18.8494C84.5011 18.663 84.0219 18.5299 83.5161 18.45C82.8771 18.3169 82.2381 18.2636 81.5726 18.2903C80.5343 18.2636 79.5226 18.45 78.5641 18.8227C77.6856 19.1688 76.9135 19.7013 76.2745 20.3935C75.6356 21.1123 75.1297 21.9377 74.8102 22.8429C74.4641 23.8812 74.2778 24.9727 74.3044 26.0643C74.2778 27.2091 74.4641 28.3273 74.8369 29.3922C75.1563 30.324 75.6888 31.1759 76.3544 31.8948C77.02 32.587 77.8453 33.1194 78.7505 33.4656C79.7622 33.8383 80.8271 34.0246 81.892 33.998C82.318 33.998 82.744 33.9714 83.17 33.9181C83.5427 33.8649 83.9154 33.785 84.2881 33.7052C84.6342 33.6253 84.9803 33.4922 85.3265 33.3591C85.6726 33.2259 85.992 33.0662 86.3115 32.8798V28.6201H83.3031C83.1433 28.6201 82.957 28.5669 82.8505 28.4604C82.744 28.3539 82.6641 28.1941 82.6641 28.0344V26.3571H89.0271Z" fill="#8F8F8F"/>
<path d="M98.4518 21.6448C99.4369 21.6182 100.395 21.8046 101.301 22.1507C102.126 22.4702 102.871 22.976 103.484 23.6416C104.096 24.3072 104.575 25.1059 104.868 25.9578C105.507 27.9546 105.507 30.0844 104.868 32.0812C104.575 32.9331 104.096 33.7318 103.484 34.424C102.871 35.063 102.126 35.5688 101.301 35.8883C99.4635 36.5805 97.4135 36.5805 95.5765 35.8883C94.7512 35.5688 94.0057 35.063 93.3934 34.424C92.7811 33.7584 92.3019 32.9598 92.009 32.0812C91.37 30.0844 91.37 27.9546 92.009 25.9578C92.3019 25.1059 92.7811 24.3072 93.3934 23.6416C94.0057 23.0026 94.7512 22.4968 95.5765 22.1507C96.5083 21.8046 97.4668 21.6448 98.4518 21.6448ZM98.4518 34.2643C99.8096 34.2643 100.821 33.8117 101.487 32.9065C102.152 32.0013 102.499 30.6968 102.499 29.0461C102.499 27.3955 102.152 26.0909 101.487 25.1857C100.821 24.2806 99.8096 23.8013 98.4518 23.8013C97.0674 23.8013 96.0557 24.2539 95.3902 25.1857C94.7246 26.1176 94.3785 27.3955 94.3785 29.0461C94.3785 30.6968 94.7246 31.9747 95.3902 32.9065C96.0557 33.8117 97.0674 34.2643 98.4518 34.2643Z" fill="#8F8F8F"/>
<path d="M111.231 15.3883V36.2344H108.462V15.3883H111.231Z" fill="#8F8F8F"/>
<path d="M127.178 15.3883V36.2344H125.501C125.155 36.261 124.835 36.0214 124.782 35.6753L124.543 34.0246C123.957 34.7168 123.265 35.3025 122.466 35.7551C121.641 36.2077 120.709 36.4207 119.777 36.4207C119.005 36.4207 118.259 36.261 117.541 35.9415C116.875 35.622 116.289 35.1428 115.837 34.5305C115.331 33.8383 114.958 33.0662 114.745 32.2409C114.479 31.2026 114.346 30.1642 114.372 29.0993C114.372 28.0876 114.506 27.1026 114.798 26.1441C115.065 25.2922 115.464 24.4669 116.023 23.7746C117.115 22.3902 118.792 21.5915 120.549 21.6182C122.013 21.5649 123.424 22.1506 124.383 23.2422V15.3883H127.178ZM124.409 25.3454C124.037 24.813 123.531 24.387 122.945 24.0941C122.386 23.8545 121.8 23.7214 121.188 23.748C119.937 23.748 118.952 24.2006 118.259 25.1058C117.567 26.011 117.221 27.3422 117.221 29.0727C117.221 29.8448 117.274 30.6435 117.461 31.4155C117.567 31.9746 117.807 32.5071 118.126 32.9863C118.393 33.3857 118.792 33.7051 119.218 33.8915C119.671 34.0779 120.176 34.1844 120.682 34.1844C121.401 34.211 122.12 34.0246 122.759 33.6519C123.398 33.2526 123.957 32.7467 124.409 32.1344V25.3454Z" fill="#8F8F8F"/>
<path d="M141.741 18.3967V25.1857H149.861V27.635H141.741V36.2344H138.733V15.9474H151.299V18.3967H141.741Z" fill="#8F8F8F"/>
<path d="M157.449 17.4384C157.449 17.678 157.396 17.9442 157.289 18.1572C157.183 18.3968 157.05 18.5832 156.863 18.7695C156.517 19.1156 156.011 19.3286 155.505 19.3286C155.266 19.3286 155 19.2754 154.787 19.1689C154.574 19.0624 154.361 18.9293 154.174 18.7695C153.988 18.5832 153.855 18.3968 153.775 18.1572C153.668 17.9176 153.615 17.678 153.615 17.4384C153.615 17.1721 153.668 16.9325 153.775 16.6929C153.961 16.2403 154.334 15.8676 154.787 15.6812C155.026 15.5747 155.266 15.5215 155.505 15.5215C156.011 15.5215 156.491 15.7345 156.863 16.0806C157.05 16.2669 157.183 16.4533 157.289 16.6929C157.422 16.9325 157.476 17.1721 157.449 17.4384ZM156.917 21.8845V36.2344H154.174V21.8845H156.917Z" fill="#8F8F8F"/>
<path d="M169.403 24.3338C169.35 24.4402 169.27 24.5201 169.164 24.6C169.057 24.6532 168.951 24.6799 168.844 24.6799C168.658 24.6799 168.498 24.6266 168.338 24.5201C168.152 24.4136 167.939 24.3071 167.673 24.174C167.38 24.0409 167.087 23.9344 166.768 23.8279C166.368 23.7214 165.942 23.6682 165.516 23.6682C165.143 23.6682 164.797 23.7214 164.451 23.8279C164.158 23.9078 163.866 24.0409 163.626 24.2273C163.413 24.387 163.227 24.6 163.094 24.8396C162.96 25.0792 162.907 25.3454 162.907 25.6117C162.907 25.9312 163.014 26.2506 163.227 26.4902C163.466 26.7565 163.759 26.9428 164.052 27.1026C164.425 27.2889 164.824 27.4487 165.223 27.5552L166.555 27.9811C167.007 28.1409 167.46 28.3006 167.886 28.487C168.312 28.6734 168.711 28.913 169.057 29.2058C169.403 29.4987 169.696 29.8448 169.882 30.2441C170.095 30.6967 170.229 31.2026 170.202 31.735C170.202 32.374 170.095 33.013 169.829 33.5987C169.59 34.1578 169.217 34.6636 168.764 35.063C168.258 35.4889 167.673 35.835 167.034 36.048C166.262 36.2876 165.49 36.4207 164.691 36.3941C163.759 36.3941 162.827 36.2344 161.949 35.8883C161.177 35.5954 160.458 35.1694 159.845 34.637L160.484 33.572C160.564 33.4389 160.644 33.3324 160.777 33.2792C160.91 33.1993 161.07 33.1727 161.23 33.1727C161.443 33.1727 161.629 33.2526 161.789 33.3591C161.975 33.4922 162.215 33.6253 162.455 33.785C162.747 33.9448 163.067 34.1045 163.413 34.211C163.866 34.3441 164.345 34.424 164.824 34.3974C165.25 34.3974 165.649 34.3441 166.049 34.211C166.368 34.1045 166.661 33.9448 166.927 33.7318C167.14 33.5454 167.327 33.3058 167.433 33.0396C167.54 32.7733 167.593 32.4805 167.593 32.2143C167.593 31.8682 167.486 31.5487 167.273 31.2824C167.034 31.0162 166.768 30.8032 166.448 30.6435C166.075 30.4571 165.676 30.2974 165.277 30.1643C164.824 30.0311 164.371 29.898 163.919 29.7383C163.466 29.5785 163.014 29.4188 162.561 29.2058C162.135 29.0195 161.736 28.7532 161.39 28.4604C161.044 28.1409 160.751 27.7682 160.564 27.3688C160.351 26.863 160.245 26.3305 160.271 25.798C160.271 25.2389 160.378 24.7065 160.618 24.2006C160.857 23.6948 161.203 23.2422 161.629 22.8695C162.108 22.4701 162.668 22.1506 163.253 21.9377C163.972 21.698 164.718 21.5916 165.463 21.5916C166.342 21.5916 167.22 21.7247 168.045 22.0441C168.764 22.3104 169.456 22.7364 170.016 23.2954L169.403 24.3338Z" fill="#8F8F8F"/>
<path d="M175.952 23.6948C176.538 23.1091 177.203 22.6032 177.949 22.2039C178.721 21.8045 179.6 21.6182 180.478 21.6448C181.197 21.6182 181.916 21.7779 182.555 22.0441C183.14 22.2837 183.646 22.6831 184.046 23.1623C184.472 23.6682 184.791 24.2539 184.977 24.8662C185.19 25.585 185.297 26.3305 185.297 27.0759V36.2077H182.528V27.0759C182.528 26.0376 182.289 25.2656 181.809 24.6798C181.33 24.0941 180.611 23.8279 179.653 23.8279C178.961 23.8279 178.268 23.9876 177.656 24.3337C177.017 24.6798 176.431 25.1591 175.926 25.6915V36.2077H173.183V15.3883H175.952V23.6948Z" fill="#8F8F8F"/>
<path d="M72.1481 48.5609V43.7421L71.3228 43.7155C71.2429 43.7155 71.2163 43.6889 71.2163 43.6356V43.5291H72.1215V42.9966C72.1215 42.7038 72.1747 42.4109 72.2546 42.1181C72.3345 41.8785 72.4676 41.6655 72.654 41.4791C72.8403 41.2928 73.0267 41.1596 73.2663 41.0798C73.5325 40.9999 73.7988 40.9467 74.065 40.9467C74.1715 40.9467 74.278 40.9467 74.4111 40.9733C74.5176 40.9999 74.6241 41.0265 74.704 41.0532L74.6773 41.1863C74.6773 41.2129 74.6507 41.2129 74.6507 41.2129C74.6241 41.2129 74.5975 41.2129 74.5442 41.2129L74.3845 41.1863C74.3046 41.1863 74.1981 41.1863 74.1182 41.1863C73.8786 41.1863 73.6656 41.2129 73.426 41.2661C73.2131 41.346 73.0267 41.4525 72.8669 41.6122C72.7072 41.772 72.6007 41.9583 72.5208 42.1713C72.441 42.4376 72.3877 42.7038 72.3877 42.97V43.5025H75.3962V48.5343H75.1033V43.7155H72.3611V48.5343H72.1481V48.5609Z" fill="#8F8F8F"/>
<path d="M82.2648 43.8753C82.2382 43.9019 82.2116 43.9285 82.185 43.9285C82.1317 43.9285 82.0785 43.9019 82.0519 43.8487C81.972 43.7954 81.8921 43.7422 81.8122 43.6889C81.6791 43.6357 81.5726 43.5824 81.4395 43.5292C81.2532 43.4759 81.0668 43.4493 80.8804 43.4493C80.6941 43.4493 80.4811 43.4759 80.3213 43.5558C80.1616 43.609 80.0019 43.6889 79.8687 43.7954C79.7356 43.9019 79.6558 44.0084 79.5759 44.1681C79.496 44.3013 79.4694 44.461 79.4694 44.5941C79.4694 44.7538 79.5226 44.9136 79.6025 45.0467C79.6824 45.1798 79.8155 45.2863 79.9486 45.3396C80.1084 45.4194 80.2681 45.4993 80.4278 45.5525L80.9869 45.7389C81.1733 45.7922 81.3597 45.8454 81.546 45.9253C81.7058 45.9785 81.8655 46.0584 82.0252 46.1649C82.1584 46.2714 82.2915 46.3779 82.3713 46.5376C82.4512 46.6973 82.5045 46.8837 82.5045 47.0701C82.5045 47.2831 82.4778 47.496 82.398 47.6824C82.3181 47.8688 82.2116 48.0551 82.0519 48.1883C81.8921 48.348 81.7058 48.4545 81.4928 48.5344C81.2532 48.6142 81.0135 48.6675 80.7473 48.6675C80.5876 48.6675 80.4012 48.6409 80.2415 48.6142C80.1084 48.5876 79.9486 48.5344 79.8155 48.4811C79.6824 48.4279 79.5759 48.348 79.4428 48.2681C79.3363 48.1883 79.2032 48.1084 79.1233 48.0019L79.2032 47.922C79.2032 47.8954 79.2298 47.8954 79.2298 47.8954C79.2564 47.8954 79.283 47.8688 79.283 47.8688C79.3363 47.8688 79.3895 47.922 79.4428 47.9486C79.5226 48.0285 79.6025 48.0818 79.709 48.135C79.8421 48.2149 79.9752 48.2947 80.135 48.3214C80.348 48.3746 80.561 48.4012 80.7739 48.4012C80.9869 48.4012 81.1999 48.3746 81.4129 48.2947C81.5993 48.2415 81.7324 48.135 81.8921 48.0019C82.0252 47.8954 82.1051 47.7357 82.185 47.5759C82.2382 47.4162 82.2915 47.2298 82.2915 47.0701C82.2915 46.9103 82.2648 46.724 82.1584 46.5909C82.0785 46.4577 81.9454 46.3512 81.8122 46.2714C81.6525 46.1915 81.4928 46.1116 81.333 46.0584L80.7739 45.8986C80.5876 45.8454 80.4012 45.7922 80.2148 45.7123C80.0551 45.659 79.8954 45.5792 79.7356 45.4727C79.6025 45.3928 79.4694 45.2597 79.3895 45.1266C79.3097 44.9668 79.2564 44.7805 79.2564 44.5941C79.2564 44.4077 79.3097 44.248 79.3895 44.0883C79.4694 43.9285 79.5759 43.7688 79.7356 43.6623C79.8954 43.5292 80.0817 43.4227 80.2681 43.3694C80.4811 43.2896 80.7207 43.2629 80.9603 43.2629C81.2265 43.2629 81.4928 43.2896 81.759 43.3961C81.9986 43.4759 82.2382 43.6357 82.4246 43.7954L82.2648 43.8753Z" fill="#8F8F8F"/>
<path d="M86.3646 44.3278C86.6042 44.0084 86.8971 43.7421 87.2432 43.5291C87.5893 43.3428 87.962 43.2363 88.3347 43.2363C88.601 43.2363 88.8406 43.2895 89.1068 43.3694C89.3198 43.4493 89.5062 43.5824 89.6393 43.7688C89.799 43.9551 89.9055 44.1681 89.9588 44.3811C90.0386 44.6473 90.0653 44.9402 90.0653 45.2064V48.5609H89.799V45.233C89.799 44.9934 89.7724 44.7272 89.7192 44.4876C89.6659 44.2746 89.586 44.0882 89.4529 43.9285C89.3198 43.7687 89.1601 43.6623 88.9737 43.5824C88.7607 43.5025 88.5477 43.4493 88.3081 43.4759C87.9354 43.4759 87.5627 43.5824 87.2432 43.7688C86.8971 43.9817 86.6042 44.2746 86.3912 44.5941V48.5609H86.0984V40.8934H86.3912L86.3646 44.3278Z" fill="#8F8F8F"/>
<path d="M99.3571 48.561V43.7422L98.5318 43.7156C98.4519 43.7156 98.4253 43.6889 98.4253 43.6357V43.5292H99.3571V42.7838C99.3571 42.5175 99.3837 42.2513 99.4636 42.0117C99.5169 41.7987 99.6233 41.6123 99.7565 41.4526C99.8896 41.3195 100.049 41.1863 100.236 41.1331C100.422 41.0532 100.635 41.0266 100.848 41.0266C100.955 41.0266 101.061 41.0266 101.167 41.0532C101.274 41.0799 101.354 41.1065 101.46 41.1331L101.434 41.2396C101.434 41.2662 101.407 41.2928 101.407 41.2928C101.38 41.2928 101.327 41.2928 101.301 41.2928H101.141C101.061 41.2928 100.981 41.2662 100.901 41.2662C100.742 41.2662 100.555 41.2928 100.395 41.3461C100.236 41.3993 100.103 41.4792 99.9961 41.6123C99.863 41.7454 99.7831 41.9052 99.7298 42.0915C99.65 42.3312 99.6233 42.5708 99.6233 42.8104V43.5558H101.407V43.7688H99.6233V48.5876L99.3571 48.561Z" fill="#8F8F8F"/>
<path d="M106.519 43.2629C106.865 43.2629 107.184 43.3162 107.504 43.4493C107.797 43.5824 108.036 43.7688 108.223 44.0084C108.436 44.248 108.569 44.5408 108.675 44.8603C108.888 45.5791 108.888 46.3512 108.675 47.07C108.595 47.3895 108.436 47.6558 108.223 47.922C108.036 48.1616 107.77 48.348 107.504 48.4545C106.865 48.6941 106.173 48.6941 105.534 48.4545C105.241 48.348 105.001 48.1616 104.815 47.922C104.602 47.6824 104.469 47.3895 104.362 47.07C104.149 46.3512 104.149 45.5791 104.362 44.8603C104.442 44.5408 104.602 44.248 104.815 44.0084C105.001 43.7688 105.268 43.5824 105.534 43.4493C105.853 43.3162 106.173 43.2363 106.519 43.2629ZM106.519 48.4012C106.838 48.4012 107.131 48.348 107.424 48.2149C107.664 48.1084 107.903 47.922 108.063 47.709C108.249 47.4694 108.382 47.2032 108.462 46.9369C108.542 46.6175 108.595 46.2713 108.595 45.9252C108.595 45.5791 108.569 45.233 108.462 44.9136C108.382 44.6207 108.249 44.3545 108.063 44.1415C107.903 43.9285 107.664 43.7421 107.424 43.6356C106.865 43.396 106.226 43.396 105.64 43.6356C105.401 43.7421 105.161 43.9285 105.001 44.1415C104.815 44.3811 104.682 44.6473 104.602 44.9136C104.522 45.233 104.469 45.5791 104.469 45.9252C104.469 46.2713 104.495 46.5908 104.602 46.9369C104.682 47.2298 104.815 47.4694 105.001 47.709C105.161 47.922 105.401 48.1084 105.64 48.2149C105.907 48.348 106.199 48.4278 106.519 48.4012Z" fill="#8F8F8F"/>
<path d="M114.505 43.2629C114.852 43.2629 115.171 43.3162 115.49 43.4493C115.783 43.5824 116.023 43.7688 116.209 44.0084C116.422 44.248 116.582 44.5408 116.662 44.8603C116.875 45.5791 116.875 46.3512 116.662 47.07C116.582 47.3895 116.422 47.6558 116.209 47.922C116.023 48.1616 115.757 48.348 115.49 48.4545C114.852 48.6941 114.159 48.6941 113.52 48.4545C113.228 48.3213 112.988 48.1616 112.802 47.922C112.589 47.6824 112.455 47.3895 112.349 47.07C112.136 46.3512 112.136 45.5791 112.349 44.8603C112.429 44.5408 112.589 44.248 112.802 44.0084C112.988 43.7688 113.254 43.5824 113.52 43.4493C113.84 43.3162 114.159 43.2363 114.505 43.2629ZM114.505 48.4012C114.825 48.4012 115.118 48.348 115.411 48.2149C115.65 48.1084 115.89 47.922 116.05 47.709C116.236 47.4694 116.369 47.2032 116.422 46.9369C116.502 46.6175 116.555 46.2713 116.555 45.9252C116.555 45.5791 116.529 45.233 116.422 44.9136C116.342 44.6207 116.209 44.3545 116.05 44.1415C115.89 43.9285 115.65 43.7421 115.411 43.6356C114.852 43.396 114.186 43.396 113.627 43.6356C113.387 43.7421 113.148 43.9285 112.988 44.1415C112.802 44.3811 112.668 44.6473 112.615 44.9136C112.535 45.233 112.482 45.5791 112.482 45.9252C112.482 46.2713 112.509 46.5908 112.615 46.9369C112.695 47.2298 112.828 47.4694 112.988 47.709C113.148 47.922 113.387 48.1084 113.627 48.2149C113.893 48.348 114.213 48.4278 114.505 48.4012Z" fill="#8F8F8F"/>
<path d="M124.436 40.8934V48.561H124.303C124.25 48.561 124.197 48.5343 124.197 48.4811V48.4545L124.17 47.5226C123.957 47.8421 123.664 48.1084 123.345 48.3213C123.025 48.5077 122.652 48.6142 122.28 48.6142C121.694 48.6408 121.135 48.4012 120.736 47.9486C120.389 47.496 120.203 46.8304 120.203 45.9253C120.203 45.5525 120.256 45.2064 120.336 44.8603C120.416 44.5408 120.576 44.248 120.762 44.0084C120.949 43.7688 121.188 43.5558 121.481 43.4227C121.801 43.2895 122.12 43.2097 122.466 43.2097C122.812 43.2097 123.132 43.2629 123.451 43.4227C123.744 43.5824 123.984 43.7954 124.17 44.0616V40.8668H124.436V40.8934ZM124.143 44.4077C123.957 44.1149 123.717 43.8753 123.425 43.6889C123.132 43.5558 122.839 43.4759 122.519 43.4759C122.2 43.4759 121.907 43.5292 121.614 43.6623C121.375 43.7954 121.135 43.9817 120.975 44.1947C120.789 44.4343 120.682 44.7006 120.602 44.9934C120.523 45.3129 120.469 45.659 120.469 45.9785C120.469 46.8038 120.629 47.4162 120.949 47.8155C121.268 48.2149 121.801 48.4545 122.306 48.4278C122.679 48.4278 123.025 48.3213 123.318 48.135C123.638 47.922 123.93 47.6291 124.143 47.3097V44.4077Z" fill="#8F8F8F"/>
<path d="M133.781 44.3545C134.021 44.035 134.314 43.7688 134.66 43.5558C135.006 43.3694 135.379 43.2629 135.751 43.2629C136.017 43.2629 136.257 43.3162 136.523 43.3961C136.736 43.4759 136.923 43.609 137.056 43.7954C137.216 43.9818 137.322 44.1948 137.375 44.4077C137.455 44.674 137.482 44.9668 137.482 45.2331V48.5876H137.216V45.2331C137.216 44.9935 137.189 44.7272 137.136 44.4876C137.082 44.2746 137.003 44.0883 136.869 43.9285C136.736 43.7688 136.577 43.6623 136.39 43.5824C136.177 43.5026 135.964 43.4493 135.725 43.4759C135.352 43.4759 134.979 43.5824 134.66 43.7688C134.314 43.9818 134.021 44.2746 133.808 44.5941V48.561H133.515V43.3162H133.648C133.728 43.3162 133.755 43.3428 133.755 43.4227L133.781 44.3545Z" fill="#8F8F8F"/>
<path d="M145.335 43.3429V48.5611H145.202C145.149 48.5611 145.096 48.5344 145.096 48.4546L145.069 47.5494C144.829 47.8689 144.537 48.1351 144.19 48.3481C143.844 48.5611 143.472 48.6409 143.072 48.6409C142.806 48.6409 142.566 48.5877 142.3 48.5078C142.087 48.428 141.901 48.2948 141.768 48.1351C141.608 47.9487 141.502 47.7357 141.448 47.5228C141.368 47.2565 141.342 46.9637 141.342 46.6974V43.3429H141.608V46.6974C141.608 46.937 141.635 47.2033 141.688 47.4429C141.741 47.6293 141.821 47.8156 141.954 48.002C142.087 48.1617 142.247 48.2682 142.433 48.3481C142.646 48.4279 142.859 48.4812 143.099 48.4546C143.472 48.4546 143.844 48.3481 144.164 48.1617C144.51 47.9487 144.803 47.6559 145.042 47.3364V43.3695H145.335V43.3429Z" fill="#8F8F8F"/>
<path d="M150.66 48.6674C150.367 48.6941 150.101 48.5876 149.888 48.4012C149.675 48.1616 149.595 47.8421 149.622 47.5493V43.7687H148.796C148.717 43.7687 148.69 43.7421 148.69 43.6889V43.5824L149.622 43.5558L149.702 41.5324C149.702 41.5058 149.702 41.4791 149.728 41.4791C149.728 41.4525 149.755 41.4525 149.782 41.4525H149.888V43.5558H151.619V43.7687H149.888V47.5226C149.888 47.6557 149.915 47.8155 149.941 47.9486C149.968 48.0551 150.048 48.1616 150.101 48.2415C150.181 48.3213 150.261 48.3746 150.367 48.4012C150.474 48.4278 150.58 48.4544 150.687 48.4544C150.82 48.4544 150.926 48.4278 151.059 48.4012C151.166 48.3746 151.246 48.3213 151.326 48.2681C151.379 48.2148 151.459 48.1882 151.512 48.135C151.539 48.1083 151.565 48.0817 151.619 48.0817C151.645 48.0817 151.672 48.1083 151.672 48.1083L151.752 48.2148C151.698 48.2947 151.619 48.348 151.539 48.4278C151.459 48.4811 151.379 48.5343 151.272 48.5876C151.166 48.6408 151.086 48.6674 150.98 48.6941C150.873 48.6408 150.767 48.6674 150.66 48.6674Z" fill="#8F8F8F"/>
<path d="M155.266 44.7539C155.319 44.5409 155.425 44.3279 155.532 44.1149C155.638 43.9285 155.745 43.7954 155.905 43.6357C156.038 43.5026 156.198 43.4227 156.384 43.3428C156.57 43.2629 156.783 43.2363 156.996 43.2363C157.103 43.2363 157.209 43.2363 157.316 43.2629C157.422 43.2896 157.502 43.3162 157.609 43.3694L157.582 43.5292C157.582 43.5558 157.555 43.5824 157.502 43.5824C157.449 43.5824 157.396 43.5558 157.316 43.5558C157.209 43.5292 157.076 43.5026 156.97 43.5292C156.757 43.5292 156.57 43.5558 156.384 43.6357C156.224 43.7155 156.064 43.822 155.931 43.9285C155.798 44.0883 155.665 44.248 155.585 44.4344C155.479 44.674 155.399 44.887 155.319 45.1266V48.561H155.026V43.3162H155.159C155.239 43.3162 155.266 43.3428 155.266 43.4227V44.7539Z" fill="#8F8F8F"/>
<path d="M161.363 41.4526C161.363 41.5058 161.363 41.5591 161.336 41.5857C161.309 41.6389 161.283 41.6655 161.256 41.6922C161.229 41.7188 161.176 41.7454 161.15 41.772C161.096 41.7987 161.07 41.7987 161.016 41.7987C160.91 41.7987 160.83 41.772 160.75 41.6922C160.617 41.5591 160.617 41.3194 160.75 41.1863C160.83 41.1331 160.91 41.0798 161.016 41.0798C161.07 41.0798 161.123 41.0798 161.15 41.1065C161.203 41.1331 161.229 41.1597 161.256 41.1863C161.283 41.213 161.309 41.2662 161.336 41.2928C161.363 41.3461 161.363 41.3993 161.363 41.4526ZM161.15 43.3428V48.561H160.883V43.3428H161.15Z" fill="#8F8F8F"/>
<path d="M169.243 48.561H168.977V43.7422H165.755V47.4961C165.755 47.6292 165.782 47.7889 165.809 47.9221C165.835 48.0286 165.915 48.135 165.968 48.2149C166.048 48.2948 166.128 48.348 166.235 48.3747C166.341 48.4013 166.448 48.4279 166.554 48.4279C166.687 48.4279 166.794 48.4013 166.927 48.3747C167.033 48.348 167.113 48.2948 167.193 48.2415C167.246 48.1883 167.326 48.1617 167.379 48.1084C167.406 48.0818 167.433 48.0552 167.486 48.0552C167.513 48.0552 167.539 48.0818 167.539 48.0818L167.619 48.1883C167.566 48.2682 167.486 48.3214 167.406 48.4013C167.326 48.4545 167.246 48.5078 167.14 48.561C167.033 48.6143 166.953 48.6409 166.847 48.6675C166.74 48.6941 166.634 48.6941 166.527 48.6941C166.235 48.7208 165.968 48.6143 165.755 48.4279C165.542 48.1883 165.463 47.8688 165.489 47.576V43.7954H164.664C164.584 43.7954 164.557 43.7688 164.557 43.7156V43.6091L165.489 43.5558L165.569 41.5325C165.569 41.5058 165.596 41.4792 165.596 41.4792C165.622 41.4526 165.622 41.4526 165.649 41.4526H165.755V43.5558H169.243V48.561ZM169.483 41.3727C169.483 41.426 169.483 41.4526 169.456 41.5058C169.429 41.5591 169.403 41.5857 169.376 41.6123C169.35 41.639 169.296 41.6656 169.27 41.6922C169.19 41.7188 169.083 41.7188 169.003 41.6922C168.95 41.6656 168.924 41.639 168.897 41.6123C168.87 41.5857 168.844 41.5325 168.817 41.5058C168.79 41.4526 168.79 41.426 168.79 41.3727C168.79 41.1864 168.95 41 169.163 41C169.216 41 169.27 41 169.296 41.0266C169.35 41.0532 169.376 41.0799 169.403 41.1065C169.429 41.1331 169.456 41.1864 169.483 41.213C169.483 41.2929 169.483 41.3195 169.483 41.3727Z" fill="#8F8F8F"/>
<path d="M175.314 43.2629C175.66 43.2629 175.979 43.3162 176.299 43.4493C176.591 43.5824 176.831 43.7688 177.017 44.0084C177.23 44.248 177.364 44.5408 177.47 44.8603C177.683 45.5791 177.683 46.3512 177.47 47.07C177.39 47.3895 177.23 47.6558 177.017 47.922C176.804 48.1616 176.565 48.3213 176.299 48.4545C175.66 48.6941 174.967 48.6941 174.328 48.4545C174.036 48.348 173.796 48.1616 173.61 47.922C173.397 47.6824 173.237 47.3895 173.157 47.07C172.944 46.3512 172.944 45.5791 173.157 44.8603C173.237 44.5408 173.397 44.248 173.61 44.0084C173.796 43.7688 174.062 43.5824 174.328 43.4493C174.648 43.3162 174.967 43.2363 175.314 43.2629ZM175.314 48.4012C175.633 48.4012 175.926 48.348 176.192 48.2149C176.432 48.1084 176.671 47.922 176.831 47.709C177.017 47.4694 177.151 47.2032 177.204 46.9369C177.284 46.6175 177.337 46.2713 177.337 45.9252C177.337 45.5791 177.31 45.233 177.204 44.9136C177.124 44.6207 176.991 44.3545 176.831 44.1415C176.671 43.9285 176.432 43.7421 176.192 43.6356C175.633 43.396 174.994 43.396 174.408 43.6356C174.169 43.7421 173.929 43.9285 173.769 44.1415C173.583 44.3811 173.45 44.6473 173.397 44.9136C173.317 45.233 173.264 45.5791 173.264 45.9252C173.264 46.2713 173.29 46.5908 173.397 46.9369C173.477 47.2298 173.61 47.4694 173.769 47.709C173.929 47.922 174.169 48.0817 174.408 48.2149C174.701 48.348 174.994 48.4278 175.314 48.4012Z" fill="#8F8F8F"/>
<path d="M181.57 44.3545C181.81 44.035 182.102 43.7688 182.448 43.5558C182.795 43.3694 183.167 43.2629 183.567 43.2629C183.833 43.2629 184.073 43.3162 184.339 43.3961C184.552 43.4759 184.738 43.609 184.871 43.7954C185.031 43.9818 185.137 44.1948 185.191 44.4077C185.271 44.674 185.297 44.9668 185.297 45.2331V48.5876H185.031V45.2331C185.031 44.9935 185.004 44.7272 184.951 44.4876C184.898 44.2746 184.818 44.0883 184.685 43.9285C184.552 43.7688 184.392 43.6623 184.206 43.5824C183.993 43.5026 183.78 43.4493 183.54 43.4759C183.167 43.4759 182.795 43.5824 182.475 43.7688C182.129 43.9818 181.836 44.2746 181.623 44.5941V48.561H181.357V43.3162H181.49C181.543 43.3162 181.597 43.3428 181.597 43.3961V43.4227L181.57 44.3545Z" fill="#8F8F8F"/>
<path d="M27.5273 21.9642C26.3825 20.3402 26.7552 17.7045 26.7552 17.7045C26.7552 17.7045 28.6721 18.6896 30.4292 18.3168C32.1864 17.9441 34.8753 15.7078 34.8753 15.7078C34.8753 15.7078 32.0266 16.9591 29.7903 17.0123C27.5539 17.0655 25.9832 15.3883 25.9832 15.3883L26.7552 16.9324L25.1312 16.3201L25.7702 17.9175L25.1312 17.5448C25.6637 19.1422 26.489 20.6331 27.5273 21.9642ZM16.1059 4.84544C16.1059 4.84544 14.0027 5.51103 12.4053 8.38634L8.81112 14.8558C8.81112 14.8558 11.9793 12.2201 15.0143 11.8208C18.0494 11.4214 21.4039 13.4714 24.1461 13.7909C26.8883 14.1104 26.3026 13.6311 27.7669 14.2701C27.7669 14.2701 29.7637 13.072 29.4442 12.9123C29.1247 12.7526 28.5656 12.6993 28.2994 12.4863C28.0331 12.2733 28.0864 10.9688 27.3676 10.9688C26.6487 10.9688 26.4357 7.98699 23.8 6.84219C21.1643 5.69739 19.1942 5.16492 17.8364 2.71558C17.0643 1.30454 15.6799 0.292856 14.1092 0C14.1092 0 10.5416 2.76883 10.089 6.07012C9.63644 9.37141 10.4618 11.0487 10.4618 11.0487C10.4618 11.0487 10.089 6.86882 11.8728 4.44609C13.6566 2.02337 14.4286 1.51753 14.4286 1.51753C14.4286 1.51753 16.3721 2.34285 16.9845 3.91363C17.5968 5.4844 20.0728 7.00193 21.8565 7.4279C23.6403 7.85388 25.0247 9.0253 25.4241 10.0636C25.8234 11.1019 26.1695 11.8208 26.6487 11.8474C27.128 11.874 27.4208 11.8474 27.5007 12.3798C27.5539 12.7526 27.8202 13.072 28.1929 13.1785C27.9799 13.3649 27.7669 13.5246 27.5273 13.6578C27.5273 13.6578 27.3143 13.4714 26.063 13.3915C24.8117 13.3117 23.6669 13.2584 22.3091 12.7792C21.9098 12.6461 21.3241 12.4065 20.6319 12.1669C21.8565 11.2883 23.2676 10.7026 24.7319 10.463C23.028 10.463 21.3507 10.9688 19.9663 11.9272C19.7001 11.8208 19.4072 11.7409 19.1143 11.6344C21.3773 9.23829 23.4806 8.83894 23.4806 8.83894C21.3773 8.83894 19.2741 10.7558 18.5819 11.448C17.7299 11.1818 16.8514 10.9954 15.9728 10.8889C17.7832 8.70582 20.9247 8.01362 20.9247 8.01362C18.7416 8.27985 16.7449 9.29154 15.2007 10.8623H15.1475C13.8429 10.9688 12.565 11.4746 11.5533 12.3C11.5533 12.3266 12.8312 6.70908 16.1059 4.84544ZM51.4084 27.3688C49.811 27.6616 48.4532 28.6467 47.6811 30.0843C46.3234 32.5337 44.3799 33.0662 41.7175 34.211C39.0552 35.3558 38.8422 38.3376 38.1234 38.3376C37.4046 38.3376 37.4844 39.6421 37.1916 39.8551C36.8987 40.0681 36.3662 40.1213 36.0468 40.2811C35.7273 40.4408 37.724 41.6389 37.724 41.6389C39.1883 40.9999 38.6026 41.4791 41.3448 41.1596C44.087 40.8402 47.4415 38.7902 50.4766 39.1895C53.5117 39.5889 56.6798 42.2246 56.6798 42.2246L53.0857 35.7551C51.4883 32.8798 49.385 32.2142 49.385 32.2142C52.6597 34.0778 53.9643 39.6954 53.9643 39.6954C52.9259 38.87 51.6746 38.3642 50.3701 38.2577H50.3435C48.826 36.6869 46.8026 35.6752 44.6461 35.409C44.6461 35.409 47.761 36.1012 49.598 38.2843C48.7195 38.3908 47.8409 38.5772 46.9889 38.8434C46.2967 38.1246 44.1935 36.2077 42.0903 36.2077C42.0903 36.2077 44.1935 36.6071 46.4565 39.0032C46.1636 39.1096 45.8708 39.1895 45.6045 39.296C44.1935 38.3376 42.5429 37.8317 40.839 37.8317C42.3032 38.098 43.7143 38.6837 44.9389 39.5356C44.2467 39.7752 43.6344 40.0148 43.2351 40.148C41.8506 40.6272 40.7058 40.6804 39.4812 40.7603C38.2565 40.8402 38.0169 41.0265 38.0169 41.0265C37.7773 40.8934 37.5643 40.7337 37.3513 40.5473C37.724 40.4408 37.9903 40.148 38.0435 39.7752C38.0968 39.2428 38.4162 39.2694 38.8955 39.2428C39.3747 39.2161 39.7208 38.4707 40.1201 37.459C40.5195 36.4473 41.9039 35.2759 43.6877 34.8233C45.4714 34.3707 47.974 32.8798 48.5597 31.309C49.1454 29.7382 51.1156 28.9395 51.1156 28.9395C51.1156 28.9395 51.8876 29.4188 53.6714 31.8681C55.4552 34.3175 55.0824 38.4707 55.0824 38.4707C55.0824 38.4707 55.9078 36.7934 55.4552 33.4921C55.0026 30.1908 51.3818 27.3688 51.4084 27.3688ZM26.3026 14.6694C30.0033 16.3733 33.0117 15.9207 34.8753 13.4181C36.5526 11.0753 39.1883 9.61102 42.0636 9.42465C44.9123 9.18504 50.3435 9.95712 50.3435 9.95712C50.3435 9.95712 48.9324 10.2766 46.1636 10.8091C43.3948 11.3415 41.1318 14.8292 40.7591 17.385C40.3864 19.9409 40.0136 20.2337 38.363 20.7129C36.7123 21.1922 33.5176 22.3902 32.2663 24.4402C31.015 26.4902 31.8669 28.6999 31.8669 28.6999C31.2279 27.3954 29.9234 26.8629 26.9948 25.0792C24.0663 23.2954 25.1312 18.6629 25.1312 18.6629C25.1312 18.6629 23.5871 22.8428 25.7702 25.585C27.9533 28.3272 28.8585 27.2889 30.6422 29.8181C32.426 32.3473 36.6325 33.359 38.8156 31.4954C40.9987 29.6317 45.498 31.8415 45.498 31.8415C45.498 31.8415 41.5312 28.1941 39.0818 29.6584C36.6325 31.1227 34.2896 30.883 33.2247 28.1941C32.1598 25.5051 34.8487 23.4019 38.8156 22.4967C42.7825 21.5915 41.0786 19.648 42.9688 15.761C44.8591 11.874 47.6013 11.5279 50.1837 11.5013C52.7662 11.4746 54.5766 8.86556 54.5766 8.86556C54.5766 8.86556 53.5117 9.10517 45.3117 8.06686C37.1117 7.02856 35.3546 10.8889 33.065 13.5779C30.7753 16.2668 26.3026 14.6694 26.3026 14.6694ZM38.789 44.3012L39.561 42.757C39.561 42.757 37.9903 44.4343 35.7539 44.3811C33.5175 44.3278 30.6689 43.0765 30.6689 43.0765C30.6689 43.0765 33.3578 45.3129 35.1149 45.6856C36.8721 46.0583 38.789 45.0733 38.789 45.0733C38.789 45.0733 39.1617 47.709 38.0169 49.333C39.0552 48.0018 39.8805 46.5109 40.413 44.9135L39.774 45.2863L40.413 43.7155L38.789 44.3012ZM64.2941 47.7622C63.1759 46.8038 57.4785 43.1298 57.4785 43.1298L58.5701 44.4609C58.5701 44.4609 56.7065 44.8603 54.9227 48.3479C53.7246 50.6642 54.6032 53.5927 54.6032 53.5927C54.6032 53.5927 52.4467 55.057 50.3435 55.3232C48.2402 55.5895 47.0688 55.0038 44.7792 55.7758C44.7792 55.7758 46.137 54.7642 47.5747 54.6577C49.0123 54.5512 51.9941 51.9953 53.8578 53.2466C53.8578 53.2466 53.0857 52.4213 52.1539 52.5012C51.222 52.5811 48.613 54.0453 47.6811 54.072C47.2552 54.0986 46.8292 54.2051 46.4299 54.3648C45.6578 54.0453 44.1136 53.22 43.6344 51.809C42.9954 49.8921 44.6993 43.8486 48.3734 43.0765C48.3734 43.0765 44.0604 41.2928 40.413 42.0116C40.413 42.0116 42.1701 42.2246 42.5961 43.2629C43.0221 44.3012 41.5844 44.9402 41.5844 46.9635C41.5844 48.1616 41.7442 49.3596 42.0636 50.5311C42.0636 50.5311 41.6643 47.922 42.3032 46.2713C42.9422 44.6207 46.0305 43.3161 46.0305 43.3161C46.0305 43.3161 43.4214 45.7122 42.7825 49.1999C42.1968 52.3681 43.9539 53.9655 45.6312 54.6577L45.6045 54.6843C44.8058 54.7642 43.9805 54.5512 43.3149 54.072C41.9039 53.0869 41.4779 52.022 40.0669 53.8323C38.3097 56.0687 38.15 59.796 35.5675 61.7927C33.8637 63.1239 33.3312 63.1239 33.3312 63.1239C33.3312 63.1239 37.0318 64.668 40.0669 63.6563C42.8357 62.7245 47.1221 56.9739 47.8941 55.909C48.1071 55.909 48.3201 55.9356 48.5065 55.9622C50.6896 56.3083 53.8311 55.1901 55.0292 54.2849C55.0292 54.2849 56.3071 55.5362 57.0526 55.5895C57.798 55.6427 58.8363 55.0304 58.8363 55.0304C58.8363 55.0304 57.6116 55.5362 56.9993 55.0836C56.387 54.631 55.0026 53.859 55.5084 50.8772C56.0142 47.8953 57.6383 47.1765 57.6383 47.1765C57.6383 47.1765 55.3753 49.3596 55.961 52.3947C55.961 52.3947 56.1207 48.1616 59.9279 46.2181C59.9279 46.2181 63.6551 48.0817 64.4006 48.907C65.146 49.7324 65.146 50.2382 64.4006 50.9038C63.6551 51.5694 62.8831 51.4895 62.6168 51.9687C62.4571 52.2083 62.3506 52.4746 62.2974 52.7408C62.2974 52.7408 63.4688 51.5161 64.374 51.4096C64.374 51.4096 62.8564 52.581 62.2974 53.1401C61.7383 53.6992 57.2922 55.057 58.4636 51.8622C58.4636 51.8622 57.1058 52.9272 57.2123 53.859C57.3188 54.7908 59.3954 54.7908 60.7532 54.2051C62.111 53.6194 64.2675 51.6492 64.7201 51.6226C65.1727 51.596 65.5986 51.2499 65.4655 50.9304C65.3058 50.6375 65.3058 50.2914 65.4921 49.9986C65.7051 49.6791 65.4123 48.694 64.2941 47.7622ZM39.8007 62.9109C37.2448 63.7096 35.5409 63.2038 35.5409 63.2038C35.5409 63.2038 39.4812 62.5914 41.1584 60.5148C41.1584 60.5148 38.0701 62.4583 35.5409 62.5914C35.5409 62.5914 36.6059 62.2187 37.5643 60.8343C38.5227 59.4499 38.8688 57.107 40.6526 54.5245C41.8773 52.7674 41.9571 54.8707 44.4864 55.2168C43.7409 55.6161 43.0487 56.0953 42.4364 56.6544C43.7675 56.3083 45.1253 56.0687 46.4831 55.9356C45.5513 57.2668 42.0104 62.1921 39.8007 62.9109ZM61.9246 49.2265C62.0045 49.2265 62.0844 49.2531 62.1376 49.3064C61.9779 48.9869 61.6318 48.8538 61.3123 49.0135C60.9928 49.1733 60.8597 49.5194 61.0194 49.8388C61.1792 50.1583 61.5253 50.2914 61.8447 50.1317C61.9779 50.0785 62.0844 49.972 62.1376 49.8388C62.0844 49.8921 62.0045 49.9187 61.9246 49.9187C61.7383 49.9187 61.5785 49.759 61.5785 49.5726C61.5785 49.3863 61.7383 49.2265 61.9246 49.2265ZM3.59295 22.5499C3.51308 22.5499 3.43321 22.5233 3.37996 22.4701C3.5397 22.7896 3.8858 22.9227 4.20528 22.7629C4.52476 22.6032 4.65788 22.2571 4.49814 21.9376C4.3384 21.6181 3.9923 21.485 3.67282 21.6448C3.5397 21.698 3.43321 21.8045 3.37996 21.9376C3.43321 21.8844 3.51308 21.8577 3.59295 21.8577C3.77931 21.8577 3.93905 22.0175 3.93905 22.2038C3.96567 22.4168 3.80593 22.5499 3.59295 22.5499C3.61957 22.5766 3.61957 22.5766 3.59295 22.5499ZM34.8753 57.1603C36.6591 54.631 37.5643 55.6694 39.7474 52.9272C41.9305 50.1849 40.3864 46.0317 40.3864 46.0317C40.3864 46.0317 41.4513 50.6642 38.5227 52.4479C35.5942 54.2317 34.2896 54.7642 33.6507 56.0687C33.6507 56.0687 34.5026 53.8856 33.2513 51.809C32 49.7324 28.8318 48.5609 27.1546 48.0817C25.4773 47.6025 25.1312 47.3096 24.7585 44.7538C24.3858 42.198 22.1228 38.7103 19.3539 38.1778C16.5851 37.6454 15.1741 37.2993 15.1741 37.2993C15.1741 37.2993 20.6052 36.5272 23.4539 36.7668C26.3293 36.9532 28.965 38.4174 30.6422 40.7337C32.5059 43.2629 35.5143 43.6889 39.2149 41.985C39.2149 41.985 34.7156 43.5557 32.426 40.8934C31.2546 39.509 30.2163 37.8051 28.3526 36.6071C29.6838 36.5272 30.9883 36.2343 32.2396 35.7551C32.2396 35.7551 31.7338 35.7285 30.0033 34.4239C27.4208 32.4272 27.2344 28.6999 25.5039 26.4636C24.0929 24.6532 23.6669 25.7181 22.2559 26.7032C21.5903 27.1824 20.7916 27.3954 19.9663 27.3155H19.9397C21.5903 26.6499 23.3741 25.0525 22.7884 21.8577C22.1494 18.3435 19.5403 15.9474 19.5403 15.9474C19.5403 15.9474 22.602 17.2519 23.2676 18.9292C23.9332 20.6064 23.5072 23.1889 23.5072 23.1889C23.8 22.0175 23.9598 20.8194 23.9598 19.6214C23.9598 17.598 22.4955 16.9857 22.9481 15.9207C23.4007 14.8558 25.1312 14.6694 25.1312 14.6694C21.4838 13.924 17.1708 15.7344 17.1708 15.7344C20.8715 16.5065 22.5754 22.5499 21.9098 24.4668C21.4306 25.8779 19.8864 26.7032 19.1143 27.0227C18.715 26.8895 18.289 26.7831 17.863 26.7564C16.9312 26.7298 14.3221 25.2921 13.3903 25.1857C12.4585 25.0792 11.6864 25.9045 11.6864 25.9045C13.5501 24.6532 16.5319 27.209 17.9695 27.3155C19.4072 27.422 20.765 28.4337 20.765 28.4337C18.502 27.635 17.304 28.2473 15.2273 27.9811C13.1507 27.7149 10.9676 26.2506 10.9676 26.2506C10.9676 26.2506 11.8462 23.322 10.6481 21.0058C8.86436 17.5448 7.00073 17.1188 7.00073 17.1188L8.09229 15.7876C8.09229 15.7876 2.3949 19.435 1.27672 20.3935C0.15854 21.3519 -0.134316 22.337 0.0520471 22.7097C0.23841 22.9759 0.23841 23.3486 0.0786704 23.6415C-0.0544462 23.961 0.344903 24.3071 0.824123 24.3337C1.30334 24.3603 3.45983 26.3305 4.81762 26.9162C6.17541 27.5019 8.25203 27.5019 8.35852 26.5701C8.46501 25.6383 7.0806 24.5201 7.0806 24.5201C8.2254 27.7149 3.80593 26.3837 3.24684 25.798C2.68776 25.2123 1.17023 24.0675 1.17023 24.0675C2.10204 24.174 3.24684 25.3986 3.24684 25.3986C3.1936 25.1058 3.0871 24.8396 2.92736 24.5999C2.66113 24.1473 1.86243 24.2272 1.1436 23.535C0.424773 22.8428 0.39815 22.337 1.1436 21.5383C1.88906 20.7396 5.61632 18.8759 5.61632 18.8759C9.39683 20.8194 9.55657 25.0525 9.55657 25.0525C10.1423 22.0175 7.8793 19.8344 7.8793 19.8344C7.8793 19.8344 9.50332 20.5798 10.0092 23.535C10.515 26.4902 9.1306 27.2623 8.51826 27.7415C7.90592 28.2207 6.68125 27.6882 6.68125 27.6882C6.68125 27.6882 7.71956 28.3006 8.49164 28.2473C9.26371 28.1941 10.515 26.9428 10.515 26.9428C11.7131 27.8746 14.8546 28.9662 17.0377 28.6201C17.2241 28.5934 17.4371 28.5668 17.6501 28.5668C18.2624 29.4188 21.1377 33.2791 23.6935 35.2493C22.5221 35.196 21.3507 35.2493 20.1793 35.409C11.9793 36.4739 10.9144 36.2077 10.9144 36.2077C10.9144 36.2077 12.6981 38.8168 15.3072 38.8434C17.9163 38.87 20.6585 39.2161 22.5221 43.1031C24.3858 46.9902 22.6819 48.9603 26.6754 49.8388C30.6689 50.7174 33.3312 52.8473 32.2663 55.5362C31.2013 58.2252 28.8585 58.4648 26.4091 57.0005C23.9598 55.5362 19.9929 59.1836 19.9929 59.1836C19.9929 59.1836 24.4922 56.9739 26.6754 58.8375C28.8585 60.7012 33.0916 59.6895 34.8753 57.1603ZM19.0611 28.5934C20.4189 28.7266 21.7767 28.9662 23.1078 29.3123C22.4689 28.7532 21.7767 28.274 21.0578 27.8746C23.6137 27.5285 23.6669 25.3986 24.8916 27.1824C26.6754 29.7382 26.9948 32.1077 27.9799 33.4921C28.965 34.8765 30.0033 35.2493 30.0033 35.2493C27.4741 35.1162 24.4124 33.1726 24.4124 33.1726C26.0896 35.2493 30.0033 35.8616 30.0033 35.8616C30.0033 35.8616 28.539 36.3142 26.276 35.7285C26.1429 35.7019 26.0098 35.6486 25.8767 35.622L25.7435 35.5687C23.5338 34.8233 19.9663 29.898 19.0611 28.5934Z" fill="#8F8F8F"/>
</svg>
